<svg id="Iconly_Bold_Chat" data-name="Iconly/Bold/Chat" xmlns="http://www.w3.org/2000/svg" width="24" height="24" viewBox="0 0 24 24">
  <g id="Chat">
    <path id="Chat-2" data-name="Chat" d="M12,24a11.946,11.946,0,0,1-5.9-1.562,2.638,2.638,0,0,0-1.328-.509,1.456,1.456,0,0,0-.459.076l-2.425.721a.9.9,0,0,1-.271.043.744.744,0,0,1-.6-.287A.777.777,0,0,1,.9,21.789L1.7,19.1a1.255,1.255,0,0,0-.084-1.081,12.68,12.68,0,0,1-1.62-6,12.189,12.189,0,0,1,3.4-8.38A11.868,11.868,0,0,1,12.024,0a11.838,11.838,0,0,1,8.544,3.593,12.069,12.069,0,0,1,2.519,3.819A11.868,11.868,0,0,1,24,11.982a12.166,12.166,0,0,1-1.038,5.006,11.518,11.518,0,0,1-2.73,3.784A12.294,12.294,0,0,1,12,24Zm5.508-13.508a1.538,1.538,0,1,0,1.536,1.538A1.539,1.539,0,0,0,17.508,10.492Zm-5.555,0a1.521,1.521,0,0,0-1.513,1.526,1.536,1.536,0,1,0,1.536-1.526h-.023Zm-5.509,0A1.538,1.538,0,1,0,7.98,12.03,1.539,1.539,0,0,0,6.444,10.492Z" fill="#6631f7"/>
  </g>
</svg>
