<svg fill="none" height="24" viewBox="0 0 24 24" width="24" xmlns="http://www.w3.org/2000/svg"><g clip-rule="evenodd" fill="#000" fill-rule="evenodd"><path d="m12 3.50012c-4.687 0-8.5 3.813-8.5 8.49998 0 4.687 3.813 8.5 8.5 8.5s8.5-3.813 8.5-8.5c0-4.68698-3.813-8.49998-8.5-8.49998zm0 18.49998c-5.514 0-10-4.486-10-10 0-5.51398 4.486-9.99998 10-9.99998s10 4.486 10 9.99998c0 5.514-4.486 10-10 10z"/><path d="m11.9941 13.3731c-.414 0-.75-.336-.75-.75v-4.419c0-.414.336-.75.75-.75s.75.336.75.75v4.419c0 .414-.336.75-.75.75z"/><path d="m12.0039 16.796c-.553 0-1.005-.447-1.005-1s.443-1 .995-1h.01c.553 0 1 .447 1 1s-.447 1-1 1z"/></g></svg>