<svg xmlns="http://www.w3.org/2000/svg" width="382.002" height="285.889" viewBox="0 0 382.002 285.889">
  <g id="Group_9039" data-name="Group 9039" transform="translate(-612.217 -202.111)">
    <circle id="Ellipse_2157" data-name="Ellipse 2157" cx="77" cy="77" r="77" transform="translate(718 275)" fill="#f5f2ff"/>
    <text id="_404" data-name="404" transform="translate(795 439)" fill="#6631f7" font-size="140" font-family="Poppins-SemiBold, Poppins" font-weight="600" letter-spacing="-0.04em"><tspan x="-132" y="0">404</tspan></text>
    <g id="Group_9038" data-name="Group 9038" transform="translate(-444.691 -9.663)">
      <g id="Group_9036" data-name="Group 9036" transform="translate(1189.986 293.53)">
        <g id="Group_9027" data-name="Group 9027" transform="translate(0 0)">
          <path id="Path_25762" data-name="Path 25762" d="M1054.648,513.159h92.807a5.786,5.786,0,0,0,5-8.713l-20.132-34.114-26.293-44.556a5.767,5.767,0,0,0-9.951,0l-46.425,78.671A5.814,5.814,0,0,0,1054.648,513.159Z" transform="translate(-1048.87 -422.925)" fill="#f7c231"/>
        </g>
      </g>
      <g id="Group_9037" data-name="Group 9037" transform="translate(1234.972 323.459)">
        <g id="Group_9032" data-name="Group 9032" transform="translate(0 0)">
          <g id="Group_9030" data-name="Group 9030">
            <path id="Path_25764" data-name="Path 25764" d="M1156.25,536.051a6.241,6.241,0,0,1-2.05-4.741,6.025,6.025,0,0,1,2.05-4.7,7.4,7.4,0,0,1,5.21-1.836,7.224,7.224,0,0,1,5.168,1.836,6.133,6.133,0,0,1,2.007,4.7,6.306,6.306,0,0,1-2.05,4.741,7.2,7.2,0,0,1-5.125,1.922A6.923,6.923,0,0,1,1156.25,536.051ZM1161.46,493h0a6.612,6.612,0,0,1,6.577,7.132l-1.794,21.1h-9.567l-1.751-21.1A6.506,6.506,0,0,1,1161.46,493Z" transform="translate(-1154.2 -493)" fill="#fff"/>
          </g>
        </g>
      </g>
    </g>
    <path id="Path_25730" data-name="Path 25730" d="M945.2,425.285s-7.156-19.68-26.286-14.313c0,0-2.408-28.625-33.442-30.414s-40.6,22.708-40.6,22.708-26.286-14.313-44.177,7.776c0,0-20.3,0-24.5,14.313h169Z" transform="translate(-157.091 -178.353)" fill="#eae3ff"/>
    <path id="Path_25732" data-name="Path 25732" d="M1440.893,386.378s-4.707-12.945-17.241-9.415c0,0-1.589-18.829-22.007-20.006s-26.714,14.887-26.714,14.887-17.241-9.415-29.068,5.119c0,0-13.357,0-16.064,9.415Z" transform="translate(-446.674 -95.137)" fill="#eae3ff"/>
    <g id="Ellipse_2234" data-name="Ellipse 2234" transform="translate(736 287)" fill="#fff" stroke="#6631f7" stroke-width="2">
      <circle cx="7.5" cy="7.5" r="7.5" stroke="none"/>
      <circle cx="7.5" cy="7.5" r="6.5" fill="none"/>
    </g>
    <g id="x" transform="translate(832 440.433)">
      <line id="Line_2822" data-name="Line 2822" x1="8.021" y2="8.021" transform="translate(6 6)" fill="none" stroke="#6631f7" stroke-linecap="round" stroke-linejoin="round" stroke-width="3"/>
      <line id="Line_2823" data-name="Line 2823" x2="8.021" y2="8.021" transform="translate(6 6)" fill="none" stroke="#6631f7" stroke-linecap="round" stroke-linejoin="round" stroke-width="3"/>
    </g>
    <circle id="Ellipse_2235" data-name="Ellipse 2235" cx="3.5" cy="3.5" r="3.5" transform="translate(834 284)" fill="#a989ff"/>
    <path id="Path_25549" data-name="Path 25549" d="M647.55,2191.228l-5.49-1.189-1.259-5.49a.427.427,0,0,0-.839,0l-1.259,5.525-5.49,1.294a.387.387,0,0,0-.315.42.415.415,0,0,0,.35.419l5.49,1.189,1.259,5.49a.387.387,0,0,0,.42.315.42.42,0,0,0,.42-.315l1.259-5.524,5.49-1.294a.387.387,0,0,0,.315-.419A.45.45,0,0,0,647.55,2191.228Z" transform="translate(45.041 -1915.2)" fill="#bba2ff"/>
    <path id="Path_25550" data-name="Path 25550" d="M1606.5,2107.3l-4.534-.982-1.04-4.533a.352.352,0,0,0-.693,0l-1.04,4.563-4.534,1.068a.32.32,0,0,0-.26.346.343.343,0,0,0,.289.346l4.534.982,1.04,4.533a.352.352,0,0,0,.693,0l1.04-4.562,4.534-1.069a.32.32,0,0,0,.26-.346A.407.407,0,0,0,1606.5,2107.3Z" transform="translate(-661.922 -1784.932)" fill="#bba2ff"/>
    <path id="Path_25551" data-name="Path 25551" d="M1044.272,1912.256l-2.659-.568-.594-2.633a.2.2,0,0,0-.206-.155.225.225,0,0,0-.207.155l-.594,2.659-2.659.62a.2.2,0,0,0-.155.207.225.225,0,0,0,.155.207l2.659.568.594,2.633a.2.2,0,0,0,.207.155.225.225,0,0,0,.206-.155l.594-2.658,2.659-.62a.215.215,0,0,0,0-.413Z" transform="translate(-75.971 -1535.133)" fill="#bba2ff"/>
    <path id="Path_25552" data-name="Path 25552" d="M1718.188,2224.6l-5.071-1.083-1.132-5.021a.374.374,0,0,0-.394-.3.429.429,0,0,0-.394.3l-1.132,5.071-5.07,1.181a.374.374,0,0,0-.3.394.429.429,0,0,0,.3.394l5.07,1.083,1.132,5.021a.375.375,0,0,0,.394.3.429.429,0,0,0,.394-.3l1.132-5.071,5.071-1.182a.374.374,0,0,0,.3-.394C1718.484,2224.8,1718.385,2224.6,1718.188,2224.6Z" transform="translate(-1092.482 -1851.3)" fill="#bba2ff"/>
  </g>
</svg>
