<svg xmlns="http://www.w3.org/2000/svg" width="42.432" height="42.432" viewBox="0 0 42.432 42.432">
  <g id="Group_6222" data-name="Group 6222" transform="translate(-780.885 -1804.681)">
    <path id="Combined-Shape" d="M21.218,0c-5.762,0-6.485.025-8.748.128a15.57,15.57,0,0,0-5.149.986A10.389,10.389,0,0,0,3.562,3.56,10.415,10.415,0,0,0,1.113,7.318a15.5,15.5,0,0,0-.986,5.149C.027,14.73,0,15.454,0,21.216S.026,27.7.128,29.962a15.592,15.592,0,0,0,.986,5.149,10.4,10.4,0,0,0,2.447,3.758,10.389,10.389,0,0,0,3.757,2.449,15.582,15.582,0,0,0,5.15.986c2.263.1,2.986.128,8.747.128s6.483-.025,8.746-.128a15.592,15.592,0,0,0,5.152-.986,10.87,10.87,0,0,0,6.2-6.207,15.725,15.725,0,0,0,.986-5.149c.1-2.263.128-2.984.128-8.746s-.027-6.485-.128-8.748a15.718,15.718,0,0,0-.986-5.149A10.413,10.413,0,0,0,38.869,3.56a10.369,10.369,0,0,0-3.757-2.446A15.618,15.618,0,0,0,29.958.128C27.7.025,26.975,0,21.211,0Z" transform="translate(780.885 1804.681)" fill="#8e8e8e"/>
    <path id="Combined-Shape-2" data-name="Combined-Shape" d="M17.392,34.781c-5.645,0-6.319-.022-8.573-.124a11.767,11.767,0,0,1-3.94-.732A6.58,6.58,0,0,1,2.44,32.338,6.553,6.553,0,0,1,.853,29.9a11.711,11.711,0,0,1-.731-3.938C.021,23.735,0,23.066,0,17.388s.021-6.345.122-8.57a11.737,11.737,0,0,1,.731-3.94A6.543,6.543,0,0,1,2.44,2.439,6.6,6.6,0,0,1,4.879.85,11.767,11.767,0,0,1,8.819.119C10.8.03,11.545,0,15.49,0c.182.005.379.005.552.005h1.35c5.711,0,6.375.021,8.573.121A11.742,11.742,0,0,1,29.9.858a6.553,6.553,0,0,1,2.437,1.587,6.6,6.6,0,0,1,1.589,2.439,11.8,11.8,0,0,1,.731,3.938c.1,2.227.122,2.9.122,8.571s-.021,6.345-.122,8.57a11.8,11.8,0,0,1-.731,3.938A7.036,7.036,0,0,1,29.9,33.925a11.682,11.682,0,0,1-3.94.732C23.713,34.759,23.039,34.781,17.392,34.781Zm0-28.279A10.894,10.894,0,1,0,28.286,17.4,10.907,10.907,0,0,0,17.392,6.5ZM28.717,3.526l0,0a2.545,2.545,0,1,0,2.551,2.543A2.545,2.545,0,0,0,28.713,3.53Z" transform="translate(784.71 1808.499)" fill="#fff"/>
    <path id="Shape" d="M7.072,0A7.072,7.072,0,1,1,0,7.072,7.072,7.072,0,0,1,7.072,0Z" transform="translate(795.03 1818.824)" fill="#fff"/>
  </g>
</svg>
