<svg xmlns="http://www.w3.org/2000/svg" width="23.247" height="27.079" viewBox="0 0 23.247 27.079">
  <g id="noun-antenna-4635475" transform="translate(-139.666 -34.997)">
    <path id="Path_25490" data-name="Path 25490" d="M245.383,153.462h9.671a.963.963,0,0,0,.928-1.219l-4.13-15.222a2.761,2.761,0,0,0,.416-.338,2.9,2.9,0,1,0-4.1,0,2.761,2.761,0,0,0,.416.338l-4.168,15.222a.964.964,0,0,0,.967,1.219Zm4.149-19.554a.967.967,0,1,1-.281.682.968.968,0,0,1,.281-.682Z" transform="translate(-98.93 -91.386)" fill="#6631f7"/>
    <path id="Path_25491" data-name="Path 25491" d="M245,113.3a5.8,5.8,0,0,0,1.7,4.1l1.364-1.373h0a3.868,3.868,0,0,1,0-5.464l-1.364-1.373a5.8,5.8,0,0,0-1.7,4.11Z" transform="translate(-99.513 -70.096)" fill="#6631f7"/>
    <path id="Path_25492" data-name="Path 25492" d="M399.52,116.041l1.364,1.373h0a5.8,5.8,0,0,0,0-8.21l-1.364,1.373a3.868,3.868,0,0,1,0,5.464Z" transform="translate(-245.494 -70.106)" fill="#6631f7"/>
    <path id="Path_25493" data-name="Path 25493" d="M196.47,83.049a6.77,6.77,0,0,1,0-9.574L195.106,72.1a8.7,8.7,0,0,0,0,12.311Z" transform="translate(-49.968 -35.055)" fill="#6631f7"/>
    <path id="Path_25494" data-name="Path 25494" d="M438.814,72.1,437.5,73.475a6.77,6.77,0,0,1,0,9.574l1.364,1.364a8.7,8.7,0,0,0-.048-12.311Z" transform="translate(-281.375 -35.054)" fill="#6631f7"/>
    <path id="Path_25495" data-name="Path 25495" d="M143.079,51.441l1.373-1.364h0a9.671,9.671,0,0,1,0-13.684L143.079,35a11.605,11.605,0,0,0,0,16.44Z" transform="translate(0 -0.004)" fill="#6631f7"/>
    <path id="Path_25496" data-name="Path 25496" d="M475.1,35l-1.373,1.364a9.671,9.671,0,0,1,0,13.684l1.373,1.393a11.605,11.605,0,0,0,0-16.44Z" transform="translate(-315.596)" fill="#6631f7"/>
  </g>
</svg>
