<svg xmlns="http://www.w3.org/2000/svg" width="32.847" height="42.432" viewBox="0 0 32.847 42.432">
  <path id="Path_1410" data-name="Path 1410" d="M27.356,4.622c-11.58,0-17.419,8.3-17.419,15.226,0,4.192,1.587,7.921,4.99,9.309a.838.838,0,0,0,1.221-.609c.113-.426.379-1.505.5-1.956a1.184,1.184,0,0,0-.351-1.359,7.025,7.025,0,0,1-1.609-4.779,11.543,11.543,0,0,1,12-11.673c6.545,0,10.141,4,10.141,9.339,0,7.028-3.11,12.96-7.726,12.96a3.773,3.773,0,0,1-3.847-4.695c.732-3.088,2.151-6.419,2.151-8.649,0-1.994-1.071-3.658-3.287-3.658-2.606,0-4.7,2.7-4.7,6.308a9.378,9.378,0,0,0,.777,3.857s-2.667,11.3-3.135,13.281a27.339,27.339,0,0,0-.072,9.261.325.325,0,0,0,.58.141,26.019,26.019,0,0,0,4.4-7.977c.3-1.083,1.714-6.7,1.714-6.7.847,1.616,3.322,3.036,5.954,3.036,7.834,0,13.15-7.142,13.15-16.7C42.785,11.355,36.662,4.622,27.356,4.622Z" transform="translate(-9.937 -4.622)" fill="#8e8e8e"/>
</svg>
