<svg xmlns="http://www.w3.org/2000/svg" width="45.26" height="42.432" viewBox="0 0 45.26 42.432">
  <path id="Combined-Shape-path" d="M23.065,0h-.113l-.778.008A13.144,13.144,0,0,0,17,1.1a11.53,11.53,0,0,0-3.3,2.182,12.317,12.317,0,0,0-2.758,3.953c-1.011,2.261-.771,6.07-.578,9.132v0c.021.328.042.67.062,1a1.776,1.776,0,0,1-.744.14,4.923,4.923,0,0,1-2.016-.54,1.808,1.808,0,0,0-.767-.158,2.727,2.727,0,0,0-1.356.379,1.872,1.872,0,0,0-.957,1.224,1.685,1.685,0,0,0,.644,1.588,5.527,5.527,0,0,0,1.686.965c.192.075.42.147.662.224.838.266,2.106.667,2.437,1.443A1.872,1.872,0,0,1,9.8,24.177c-.008.017-.016.034-.024.051A14.893,14.893,0,0,1,7.5,27.755a12.8,12.8,0,0,1-2.75,2.427,10.131,10.131,0,0,1-3.862,1.5A1.058,1.058,0,0,0,0,32.787a1.391,1.391,0,0,0,.109.461l0,0a2.833,2.833,0,0,0,1.532,1.31A17.551,17.551,0,0,0,6.07,35.713a5.415,5.415,0,0,1,.27.973c.074.34.151.69.26,1.061a1.16,1.16,0,0,0,1.214.883,5.849,5.849,0,0,0,1.041-.144,11.762,11.762,0,0,1,2.375-.27,10.432,10.432,0,0,1,1.7.144A8.076,8.076,0,0,1,16.1,40a10.28,10.28,0,0,0,6.252,2.433c.076,0,.153,0,.229-.008.093,0,.207.008.328.008A10.275,10.275,0,0,0,29.159,40l0,0a8.082,8.082,0,0,1,3.17-1.635,10.439,10.439,0,0,1,1.7-.144,11.885,11.885,0,0,1,2.375.251,5.643,5.643,0,0,0,1.041.127H37.5a1.145,1.145,0,0,0,1.162-.868c.107-.364.184-.705.26-1.051a5.508,5.508,0,0,1,.269-.968,17.577,17.577,0,0,0,4.427-1.152,2.839,2.839,0,0,0,1.531-1.306,1.35,1.35,0,0,0,.112-.465,1.058,1.058,0,0,0-.887-1.1c-6.051-.994-8.776-7.193-8.889-7.457-.007-.017-.015-.035-.024-.051a1.872,1.872,0,0,1-.213-1.538c.33-.776,1.6-1.177,2.436-1.442.243-.076.472-.149.662-.224a5.09,5.09,0,0,0,1.805-1.078,1.71,1.71,0,0,0,.55-1.234,1.944,1.944,0,0,0-1.453-1.683,2.605,2.605,0,0,0-.985-.188,2.21,2.21,0,0,0-.916.186,5.169,5.169,0,0,1-1.886.537,1.71,1.71,0,0,1-.624-.137c.017-.283.035-.573.054-.876l.008-.13c.194-3.063.435-6.875-.577-9.138a12.333,12.333,0,0,0-2.769-3.964,11.561,11.561,0,0,0-3.313-2.182A13.21,13.21,0,0,0,23.065,0Z" fill="#8e8e8e"/>
</svg>
