<svg xmlns="http://www.w3.org/2000/svg" width="51.345" height="42.431" viewBox="0 0 51.345 42.431">
  <path id="Combined-Shape-path" d="M24.931,11.287l.111,1.835L23.187,12.9A30.173,30.173,0,0,1,5.528,4.208L3.079,1.774l-.631,1.8a10.809,10.809,0,0,0,2.3,11.087c1.484,1.573,1.15,1.8-1.41.861A4.375,4.375,0,0,0,1.6,15.108c-.26.262.631,3.671,1.336,5.019a11.981,11.981,0,0,0,5.083,4.794l1.818.861L7.68,25.82c-2.078,0-2.152.037-1.929.824.742,2.435,3.673,5.019,6.938,6.143l2.3.787-2,1.2a20.888,20.888,0,0,1-9.943,2.772,10.986,10.986,0,0,0-3.042.3c0,.375,4.526,2.472,7.16,3.3A31.338,31.338,0,0,0,31.5,38.367,32.571,32.571,0,0,0,43.852,23.835,38.633,38.633,0,0,0,46.375,12.6c0-1.723.111-1.948,2.189-4.008a24.458,24.458,0,0,0,2.6-2.884C51.532,5,51.495,5,49.6,5.632c-3.153,1.124-3.6.974-2.04-.712,1.15-1.2,2.523-3.371,2.523-4.008,0-.112-.556.075-1.187.412A20.7,20.7,0,0,1,45.633,2.6l-2,.637L41.812,2A15.1,15.1,0,0,0,38.658.351,12.675,12.675,0,0,0,32.166.5,10.723,10.723,0,0,0,24.931,11.287Z" fill="#8e8e8e"/>
</svg>
