<svg xmlns="http://www.w3.org/2000/svg" width="59.035" height="42.431" viewBox="0 0 59.035 42.431">
  <g id="Group_6223" data-name="Group 6223" transform="translate(-754.2 -1771.2)">
    <path id="Combined-Shape-path" d="M57.8,6.626a7.5,7.5,0,0,0-5.22-5.359C47.978,0,29.517,0,29.517,0S11.057,0,6.453,1.267a7.5,7.5,0,0,0-5.22,5.359C0,11.353,0,21.216,0,21.216s0,9.863,1.233,14.59a7.5,7.5,0,0,0,5.22,5.359c4.6,1.266,23.064,1.266,23.064,1.266s18.461,0,23.064-1.266a7.5,7.5,0,0,0,5.22-5.359c1.234-4.727,1.234-14.59,1.234-14.59S59.035,11.353,57.8,6.626Z" transform="translate(754.2 1771.2)" fill="#8e8e8e"/>
    <path id="Fill-2" d="M0,18.448V0L14.759,9.225Z" transform="translate(778.183 1784.113)" fill="#fff"/>
  </g>
</svg>
