<svg id="Facebook" xmlns="http://www.w3.org/2000/svg" width="17" height="17" viewBox="0 0 17 17">
  <g id="Facebook-2" data-name="Facebook">
    <path id="Path" d="M17,8.5a8.5,8.5,0,1,0-9.828,8.4v-5.94H5.014V8.5H7.172V6.627A3,3,0,0,1,10.383,3.32a13.073,13.073,0,0,1,1.9.166V5.578H11.213A1.228,1.228,0,0,0,9.828,6.906V8.5h2.357l-.377,2.457H9.828V16.9A8.5,8.5,0,0,0,17,8.5Z" fill="#6631f7"/>
    <path id="Path-2" data-name="Path" d="M6.8,7.637,7.172,5.18H4.814V3.586A1.228,1.228,0,0,1,6.2,2.258H7.272V.166A13.073,13.073,0,0,0,5.369,0,3,3,0,0,0,2.158,3.307V5.18H0V7.637H2.158v5.94a8.621,8.621,0,0,0,2.656,0V7.637Z" transform="translate(5.014 3.32)" fill="#fff"/>
  </g>
</svg>
