<svg xmlns="http://www.w3.org/2000/svg" width="16.851" height="16.843" viewBox="0 0 16.851 16.843">
  <g id="Iconly_Light_Image" data-name="Iconly/Light/Image" transform="translate(0.65 0.65)">
    <g id="Image">
      <path id="Stroke_1" data-name="Stroke 1" d="M15.551,4.338V11.2a4,4,0,0,1-4.136,4.339H4.128A4,4,0,0,1,0,11.2V4.338A4,4,0,0,1,4.128,0h7.287A4,4,0,0,1,15.551,4.338Z" fill="none" stroke="#888" stroke-linecap="round" stroke-linejoin="round" stroke-width="1.3"/>
      <path id="Stroke_3" data-name="Stroke 3" d="M0,3.486,1.094,2.127a.9.9,0,0,1,1.418-.051l.671.8A.922.922,0,0,0,4.634,2.9C4.66,2.865,6.3.518,6.3.518a1.088,1.088,0,0,1,1.7-.193c.034.034,1.588,1.91,1.588,1.91" transform="translate(2.979 8.04)" fill="none" stroke="#888" stroke-linecap="round" stroke-linejoin="round" stroke-width="1.3"/>
      <path id="Stroke_5" data-name="Stroke 5" d="M2.955,1.478A1.478,1.478,0,1,1,1.478,0,1.477,1.477,0,0,1,2.955,1.478Z" transform="translate(3.416 3.9)" fill="none" stroke="#888" stroke-linecap="round" stroke-linejoin="round" stroke-width="1.3"/>
    </g>
  </g>
</svg>
