<!DOCTYPE svg PUBLIC "-//W3C//DTD SVG 1.1//EN" "http://www.w3.org/Graphics/SVG/1.1/DTD/svg11.dtd">
<!-- Uploaded to: SVG Repo, www.svgrepo.com, Transformed by: SVG Repo Mixer Tools -->
<svg width="800px" height="800px" viewBox="0 0 48 48" fill="none" xmlns="http://www.w3.org/2000/svg" stroke="#ffd500">
<g id="SVGRepo_bgCarrier" stroke-width="0"/>
<g id="SVGRepo_tracerCarrier" stroke-linecap="round" stroke-linejoin="round"/>
<g id="SVGRepo_iconCarrier"> <path fill-rule="evenodd" clip-rule="evenodd" d="M24 42C33.9411 42 42 33.9411 42 24C42 14.0589 33.9411 6 24 6C14.0589 6 6 14.0589 6 24C6 33.9411 14.0589 42 24 42ZM24 44C35.0457 44 44 35.0457 44 24C44 12.9543 35.0457 4 24 4C12.9543 4 4 12.9543 4 24C4 35.0457 12.9543 44 24 44Z" fill="#ffd500"/> <path d="M19 20C19 21.1046 18.1046 22 17 22C15.8954 22 15 21.1046 15 20C15 18.8954 15.8954 18 17 18C18.1046 18 19 18.8954 19 20Z" fill="#ffd500"/> <path d="M33 20C33 21.1046 32.1046 22 31 22C29.8954 22 29 21.1046 29 20C29 18.8954 29.8954 18 31 18C32.1046 18 33 18.8954 33 20Z" fill="#ffd500"/> <path fill-rule="evenodd" clip-rule="evenodd" d="M16 31C16 30.4477 16.4477 30 17 30L31 30C31.5523 30 32 30.4477 32 31C32 31.5523 31.5523 32 31 32L17 32C16.4477 32 16 31.5523 16 31Z" fill="#ffd500"/> </g>
</svg>