<svg xmlns="http://www.w3.org/2000/svg" width="90" height="90" viewBox="0 0 90 90">
  <g id="Group_8684" data-name="Group 8684" transform="translate(-756 -281)">
    <circle id="Ellipse_2157" data-name="Ellipse 2157" cx="45" cy="45" r="45" transform="translate(756 281)" fill="#e6f0e1"/>
    <g id="Iconly_Bold_Tick_Square" data-name="Iconly/Bold/Tick Square" transform="translate(785 310)">
      <g id="Tick_Square" data-name="Tick Square">
        <path id="Tick_Square-2" data-name="Tick Square" d="M22.944,32H9.072C3.646,32,0,28.2,0,22.546V9.472C0,3.807,3.646,0,9.072,0H22.944C28.361,0,32,3.807,32,9.472V22.546C32,28.2,28.361,32,22.944,32ZM10.3,14.6a1.4,1.4,0,0,0-.991,2.393l3.807,3.792a1.41,1.41,0,0,0,1.969,0l7.6-7.6A1.4,1.4,0,0,0,20.7,11.2L14.1,17.809l-2.8-2.8A1.389,1.389,0,0,0,10.3,14.6Z" fill="#4fa531"/>
      </g>
    </g>
  </g>
</svg>
